Simulation
nRows=42
nColumns=15
endheader
time  TH_x TH_y TH_z SC_y  SC_z  SC_x  AC_y  AC_z  AC_x  GH_y  GH_z  GH_yy  EL_x  PS_y
1.4749999999999996  0.000000  0.000000  0.000000  -38.4482222837938  6.183429080663945  31.787848369956293  55.59387611229197  14.606270619512708  6.69320738031977  -17.772869126632724  33.61822919244241  -4.518057600635563  23.563961322133743  120.000000
1.5044999999999995  0.000000  0.000000  0.000000  -38.49587700065709  6.136408438438412  32.37556520922824  55.70703649347197  14.277456145314122  6.588712766263959  -18.10711915485049  33.669092542384504  -4.1261584273283844  23.615686901112316  120.000000
1.5339999999999996  0.000000  0.000000  0.000000  -38.48349490878886  6.083479221109557  32.83304758226844  55.803640167796566  13.97506022029908  6.4127783531243425  -18.336363464466125  33.61482736741535  -3.7609052518395414  23.627369370547484  120.000000
1.5634999999999994  0.000000  0.000000  0.000000  -38.407337310025326  6.027561979449255  33.148870677484794  55.88308403084694  13.704317116342098  6.16564500552027  -18.465883346911852  33.448422917177616  -3.423600538996157  23.605803941373058  120.000000
1.5929999999999995  0.000000  0.000000  0.000000  -38.27139203120535  5.976098984163454  33.30816467271114  55.95238532656314  13.465702329691894  5.8488403485306  -18.489665451317368  33.16574793705345  -3.1339028535740154  23.5582108324748  120.000000
1.6224999999999996  0.000000  0.000000  0.000000  -38.08792766776337  5.940597465408823  33.29201209744695  56.025490716895355  13.254514150438128  5.4654887850118365  -18.389177328238308  32.76638144781699  -2.928329672342375  23.491603971722967  120.000000
1.6519999999999995  0.000000  0.000000  0.000000  -37.87549292426079  5.933739349695592  33.0781244922822  56.11945112888626  13.061026448332797  5.02197497743829  -18.133365755430745  32.255711435371886  -2.8558640449050037  23.412265094498775  120.000000
1.6814999999999996  0.000000  0.000000  0.000000  -37.654774467141515  5.964311575976634  32.644358573584796  56.2474275264552  12.871602788504902  4.530833073129449  -17.6807791072076  31.645768175950124  -2.968941426737575  23.32505769617236  120.000000
1.7109999999999994  0.000000  0.000000  0.000000  -37.44369133276294  6.031988004349146  31.973554467624883  56.411977046657455  12.670415927275966  4.01285150709061  -16.983604979306108  30.956615662447128  -3.314389176694586  23.232353279641718  120.000000
1.7404999999999995  0.000000  0.000000  0.000000  -37.253701957251174  6.125795233984315  31.058623169067424  56.601849540172054  12.442256648364616  3.4960455513965085  -15.996791080910084  30.21475892779648  -3.9218933654037396  23.13255749236789  120.000000
1.7699999999999996  0.000000  0.000000  0.000000  -37.087905953791385  6.226347538884092  29.905658957958035  56.793988700897096  12.175181009496509  3.0110586200251666  -14.69043461315327  29.451114959176916  -4.79304110248198  23.019158970439193  120.000000
1.7994999999999994  0.000000  0.000000  0.000000  -36.941322081676745  6.311626727286558  28.534805968785424  56.95913204692873  11.862228214867342  2.5846691844824097  -13.061239751688797  28.695170812435116  -5.895194728100963  22.881382496167358  120.000000
1.8289999999999995  0.000000  0.000000  0.000000  -36.801849397035696  6.362258518124091  26.977628158610653  57.06858570855405  11.502087388385611  2.2349133455997867  -11.14029335022905  27.969652937516184  -7.15958415198492  22.70657923549787  120.000000
1.8584999999999994  0.000000  0.000000  0.000000  -36.652989917396404  6.365628022279669  25.2715712707332  57.09886654857005  11.100625318852694  1.9707449350485384  -8.989593172836942  27.28641892270697  -8.491509261474569  22.48377013928182  120.000000
1.8879999999999995  0.000000  0.000000  0.000000  -36.47637350475509  6.317054097932698  23.457901109257687  57.03448611267475  10.66871296935864  1.7929723069659078  -6.694575940702685  26.64634629802162  -9.782513236280552  22.20710965102048  120.000000
1.9174999999999995  0.000000  0.000000  0.000000  -36.25464035430072  6.2188311811215184  21.579864473664795  56.8690761230638  10.218309917934022  1.6948821415682092  -4.349796133962007  26.040313035817626  -10.928015823601436  21.877695127356226  120.000000
1.9469999999999994  0.000000  0.000000  0.000000  -35.97337582767371  6.078642826570304  19.68108156095305  56.605099543757895  9.760455875495108  1.664935847994017  -2.0462119581335267  25.45232371389555  -11.841258398933178  21.503488881022168  120.000000
1.9764999999999995  0.000000  0.000000  0.000000  -35.622994899276115  5.907557187501064  17.80344941756198  56.25251953700071  9.304669203012466  1.6890627533044777  0.14210859183082544  24.86354388752967  -12.465437243526551  21.097343425592275  120.000000
2.0059999999999993  0.000000  0.000000  0.000000  -35.20052516639678  5.7174656407476085  15.984261718909178  55.82686508160455  8.859442084037752  1.7530339799781587  2.164505918760826  24.25559732495962  -12.77882036354458  20.674854548017056  120.000000
2.0354999999999994  0.000000  0.000000  0.000000  -34.71117183400994  5.5189226370506175  14.25302335136828  55.34709226795955  8.433010405954395  1.843780490554988  3.996326684249128  23.61252112015512  -12.793811642616388  20.2520555492167  120.000000
2.0649999999999995  0.000000  0.000000  0.000000  -34.16934178548487  5.319826082901557  12.630187503888171  54.833655256658744  8.033285451140635  1.9501019314086678  5.639049844955033  22.921594784683847  -12.55388538055681  19.84444789356013  120.000000
2.0944999999999996  0.000000  0.000000  0.000000  -33.59712441899057  5.124620709502107  11.1302653235653  54.30619921763398  7.6662391833982815  2.062312874857969  7.116256748658971  22.173864618794134  -12.124105876797087  19.46590969194372  120.000000
2.123999999999999  0.000000  0.000000  0.000000  -33.021513286295864  4.935679873382167  9.76207796374671  53.7824915858436  7.336315699461553  2.172124450323942  8.468646279515763  21.364381494082537  -11.581250620653076  19.12826985626143  120.000000
2.1534999999999993  0.000000  0.000000  0.000000  -32.46965826428325  4.7542812436433834  8.529327193839233  53.276981572246235  7.0465420706873765  2.273234054290076  9.744665748885417  20.49179111441992  -10.998808305646545  18.839845900792227  120.000000
2.1829999999999994  0.000000  0.000000  0.000000  -31.963889293870906  4.58169691126557  7.4312074963961745  52.80043344211021  6.79845350495759  2.361515390496838  10.993299185059206  19.558628859341137  -10.43571128853126  18.604193380627972  120.000000
2.2124999999999995  0.000000  0.000000  0.000000  -31.516794565928226  4.41974049003044  6.463417927037046  52.35970628528971  6.59192256314459  2.4354922621402775  12.255491457504158  18.57082656695782  -9.926073935950626  18.41864175171576  120.000000
2.2419999999999995  0.000000  0.000000  0.000000  -31.12919419498567  4.27120351131363  5.6188315164134295  51.958873699481586  6.425171385710651  2.4957113224821454  13.560019474531273  17.537461318769047  -9.477014553674382  18.274806042393298  120.000000
2.271499999999999  0.000000  0.000000  0.000000  -30.79138551083834  4.139339365729151  4.888852866373629  51.59947859821774  6.295124398793622  2.544664269453271  14.921554670095615  16.469389737836444  -9.07353766354433  18.160594076704044  120.000000
2.3009999999999993  0.000000  0.000000  0.000000  -30.4872475521581  4.027441588199592  4.264095969692902  51.281633738401375  6.19781897894366  2.58571878349715  16.344247462407388  15.378467884097457  -8.69072301999281  18.063969928317828  120.000000
2.3304999999999993  0.000000  0.000000  0.000000  -30.199289250244377  3.938284065120213  3.734963343950218  51.0045268028692  6.128847520228998  2.622331677028005  17.828710770177953  14.276329014015744  -8.310194638898848  17.97658698569962  120.000000
2.3599999999999994  0.000000  0.000000  0.000000  -29.913930592853976  3.8734335688635713  3.2918403402918543  50.766642630812726  6.083675436996172  2.6572970688611584  19.382243438725695  13.174229363892305  -7.937294267570293  17.89713112622737  120.000000
2.3894999999999995  0.000000  0.000000  0.000000  -29.624491179573234  3.8328368323377924  2.9252103524903386  50.56558407371656  6.057974553316517  2.6924320309688263  21.02836588111648  12.082825308295298  -7.613085467251119  17.832080279007688  120.000000
2.418999999999999  0.000000  0.000000  0.000000  -29.331755742377524  3.8148343348914167  2.6257655050612696  50.398083756016405  6.047946170959356  2.728578595759978  22.81308793625387  11.012651381724432  -7.4175220173862995  17.794139028539817  120.000000
2.4484999999999992  0.000000  0.000000  0.000000  -29.041665233773823  3.8165404979504842  2.3844061624288653  50.26040023969379  6.050440931056689  2.7658297039375435  24.80552353242592  9.974238118610641  -7.462333141127014  17.798268363857215  120.000000
2.4779999999999993  0.000000  0.000000  0.000000  -28.76251688296066  3.8341616413407595  2.1923439937070697  50.148794572059735  6.062910474331006  2.8039546657986447  27.093712665367875  8.978440426069016  -7.877852333372112  17.85766002982443  120.000000
2.5074999999999994  0.000000  0.000000  0.000000  -28.501531062810148  3.8632509001479787  2.0411724367556254  50.060289605157756  6.083192190000513  2.842889279617641  29.774791708639768  8.03642714069352  -8.79473578769682  17.979691087921573  120.000000
2.5369999999999995  0.000000  0.000000  0.000000  -28.262883356090153  3.899210689251476  1.9232517528511301  49.99348571959939  6.109594001310744  2.883164966904471  32.9427772139592  7.159980527879955  -10.326279233262085  18.16444849333258  120.000000
2.566499999999999  0.000000  0.000000  0.000000  -28.046832241107488  3.937337367190064  1.8318151540158698  49.948996420583036  6.140832078754795  2.9260468504087735  36.67468189916307  6.361123678338568  -12.55366749519293  18.40507956989593  120.000000
2.595999999999999  0.000000  0.000000  0.000000  -27.851386221735986  3.9732499626278672  1.7609288808591215  49.92888284090316  6.175920815179405  2.9733490360762476  41.01405396988305  5.651178245256125  -15.512162684062767  18.69035841392679  120.000000
2.6254999999999993  0.000000  0.000000  0.000000  -27.67374046895059  4.002860270175782  1.7054499487971848  49.93569049987646  6.214460872695431  3.0267426048538653  45.94577360623349  5.039251036063638  -19.170880433743626  19.00690673135253  120.000000
2.6549999999999994  0.000000  0.000000  0.000000  -27.51257018450527  4.023052031771686  1.6615253888846226  49.9711704004995  6.256619999506044  3.0872947213615705  51.372988503997426  4.530548197058022  -23.414548981695372  19.341565548742842  120.000000
2.6844999999999994  0.000000  0.000000  0.000000  -27.36852222437143  4.031442571648043  1.6269387018520274  50.03546560721179  6.3033542518450405  3.154764964352293  57.100893785181746  4.124693019681639  -28.03147303734029  19.682031241622823  120.000000
